<?xml version="1.0" encoding="utf-8"?>
<!-- Generator: Adobe Illustrator 21.1.0, SVG Export Plug-In . SVG Version: 6.00 Build 0)  -->
<svg version="1.1" id="图层_1" xmlns="http://www.w3.org/2000/svg" xmlns:xlink="http://www.w3.org/1999/xlink" x="0px" y="0px"
	 viewBox="0 0 150 150" style="enable-background:new 0 0 150 150;" xml:space="preserve">
<style type="text/css">
	.st0{fill:#FCFF00;}
</style>
<rect class="st0" width="150" height="150"/>
<g>
	<path d="M25.9,58.5H8.2v-3.2h17.7V58.5z M26.4,91.9c-1.7,0-3.3-0.2-4.9-0.7c-1.6-0.4-3-1.1-4.4-1.9c-1.3-0.8-2.6-1.8-3.7-2.9
		c-1.1-1.1-2-2.4-2.8-3.8c-0.8-1.4-1.4-2.8-1.8-4.4c-0.4-1.5-0.6-3.1-0.6-4.7c0-1.7,0.2-3.2,0.6-4.8c0.4-1.5,1.1-3,1.8-4.3
		c0.8-1.4,1.7-2.6,2.8-3.7s2.3-2.1,3.7-2.9c1.4-0.8,2.8-1.4,4.3-1.9s3.2-0.7,4.9-0.7c1.7,0,3.3,0.2,4.9,0.7c1.6,0.5,3,1.1,4.3,1.9
		c1.4,0.8,2.6,1.8,3.7,2.9c1.1,1.1,2,2.4,2.8,3.7c0.8,1.3,1.4,2.8,1.8,4.3c0.4,1.5,0.6,3.1,0.6,4.8c0,1.6-0.2,3.2-0.6,4.7
		c-0.4,1.5-1,3-1.8,4.4c-0.8,1.3-1.7,2.6-2.8,3.8c-1.1,1.1-2.3,2.1-3.7,2.9c-1.3,0.8-2.8,1.5-4.3,1.9C29.7,91.6,28.1,91.9,26.4,91.9
		z M26.4,58.5c-2,0-4,0.4-5.8,1.2s-3.3,1.9-4.7,3.2c-1.3,1.3-2.4,2.9-3.1,4.7c-0.8,1.8-1.1,3.8-1.1,5.8s0.4,4,1.1,5.8
		s1.8,3.4,3.1,4.8c1.3,1.3,2.9,2.4,4.7,3.2c1.8,0.8,3.7,1.2,5.8,1.2s4-0.4,5.8-1.2c1.8-0.8,3.3-1.9,4.7-3.2c1.3-1.3,2.4-2.9,3.1-4.8
		s1.1-3.8,1.1-5.8c0-2-0.4-4-1.1-5.8c-0.8-1.8-1.8-3.4-3.1-4.7s-2.9-2.4-4.7-3.2C30.4,58.9,28.5,58.5,26.4,58.5z M22.9,73.3
		c0-0.5,0.1-0.9,0.3-1.4c0.2-0.4,0.4-0.8,0.8-1.1c0.3-0.3,0.7-0.6,1.1-0.8c0.4-0.2,0.9-0.3,1.4-0.3s1,0.1,1.4,0.3s0.8,0.4,1.1,0.8
		s0.6,0.7,0.8,1.1c0.2,0.5,0.3,0.9,0.3,1.4c0,0.5-0.1,0.9-0.3,1.3c-0.2,0.4-0.5,0.8-0.8,1.1c-0.3,0.3-0.7,0.6-1.1,0.8
		c-0.4,0.2-0.9,0.3-1.4,0.3s-1-0.1-1.4-0.3c-0.4-0.2-0.8-0.5-1.1-0.8c-0.3-0.3-0.6-0.7-0.8-1.1C23,74.2,22.9,73.8,22.9,73.3z
		 M39.9,43.7c0.9,0.6,1.7,1.2,2.3,1.8c0.6,0.7,1.1,1.3,1.5,2c0.4,0.7,0.7,1.4,0.8,2c0.1,0.7,0.2,1.3,0.2,1.9c0,0.8-0.1,1.7-0.5,2.5
		c-0.3,0.8-0.8,1.6-1.5,2.3c-0.7,0.7-1.5,1.2-2.6,1.6c-1,0.4-2.3,0.6-3.8,0.6H23.8v-3.2h12.7c0.8,0,1.6-0.1,2.2-0.3
		c0.6-0.2,1.1-0.5,1.5-0.9c0.4-0.4,0.7-0.8,0.9-1.3c0.2-0.5,0.3-1,0.3-1.6c0-1-0.3-1.9-0.9-2.8c-0.6-0.9-1.4-1.6-2.5-2.3L39.9,43.7z
		"/>
	<path d="M75,106.9H48.1v-3.8H75V106.9z"/>
	<path d="M101.9,106.9H75v-3.8h26.9V106.9z"/>
	<path d="M123.1,58.5h-17.7v-3.2h17.7V58.5z M123.6,91.9c-1.7,0-3.3-0.2-4.9-0.7c-1.6-0.4-3-1.1-4.3-1.9c-1.3-0.8-2.6-1.8-3.7-2.9
		c-1.1-1.1-2-2.4-2.8-3.8c-0.8-1.4-1.4-2.8-1.8-4.4c-0.4-1.5-0.6-3.1-0.6-4.7c0-1.7,0.2-3.2,0.6-4.8c0.4-1.5,1.1-3,1.8-4.3
		c0.8-1.4,1.7-2.6,2.8-3.7c1.1-1.1,2.3-2.1,3.7-2.9c1.3-0.8,2.8-1.4,4.3-1.9c1.6-0.5,3.2-0.7,4.9-0.7s3.3,0.2,4.9,0.7
		c1.6,0.5,3,1.1,4.3,1.9c1.4,0.8,2.6,1.8,3.7,2.9c1.1,1.1,2,2.4,2.8,3.7c0.8,1.3,1.4,2.8,1.8,4.3c0.4,1.5,0.6,3.1,0.6,4.8
		c0,1.6-0.2,3.2-0.6,4.7c-0.4,1.5-1.1,3-1.8,4.4c-0.8,1.3-1.7,2.6-2.8,3.8c-1.1,1.1-2.3,2.1-3.7,2.9c-1.3,0.8-2.8,1.5-4.3,1.9
		C126.9,91.6,125.3,91.9,123.6,91.9z M123.6,58.5c-2,0-4,0.4-5.8,1.2c-1.8,0.8-3.3,1.9-4.7,3.2c-1.3,1.3-2.4,2.9-3.1,4.7
		c-0.8,1.8-1.1,3.8-1.1,5.8s0.4,4,1.1,5.8s1.8,3.4,3.1,4.8c1.3,1.3,2.9,2.4,4.7,3.2c1.8,0.8,3.7,1.2,5.8,1.2c2,0,4-0.4,5.8-1.2
		s3.3-1.9,4.7-3.2c1.3-1.3,2.4-2.9,3.1-4.8s1.1-3.8,1.1-5.8c0-2-0.4-4-1.1-5.8c-0.8-1.8-1.8-3.4-3.1-4.7c-1.3-1.3-2.9-2.4-4.7-3.2
		S125.6,58.5,123.6,58.5z M120,73.3c0-0.5,0.1-0.9,0.3-1.4c0.2-0.4,0.4-0.8,0.8-1.1c0.3-0.3,0.7-0.6,1.1-0.8
		c0.4-0.2,0.9-0.3,1.4-0.3s1,0.1,1.4,0.3s0.8,0.4,1.1,0.8s0.6,0.7,0.8,1.1c0.2,0.5,0.3,0.9,0.3,1.4c0,0.5-0.1,0.9-0.3,1.3
		s-0.4,0.8-0.8,1.1c-0.3,0.3-0.7,0.6-1.1,0.8c-0.4,0.2-0.9,0.3-1.4,0.3s-1-0.1-1.4-0.3c-0.4-0.2-0.8-0.5-1.1-0.8
		c-0.3-0.3-0.6-0.7-0.8-1.1C120.1,74.2,120,73.8,120,73.3z M137,43.7c0.9,0.6,1.7,1.2,2.3,1.8c0.6,0.7,1.1,1.3,1.5,2
		c0.4,0.7,0.7,1.4,0.8,2c0.2,0.7,0.2,1.3,0.2,1.9c0,0.8-0.2,1.7-0.5,2.5c-0.3,0.8-0.8,1.6-1.5,2.3c-0.7,0.7-1.5,1.2-2.6,1.6
		c-1.1,0.4-2.3,0.6-3.8,0.6h-12.7v-3.2h12.7c0.8,0,1.6-0.1,2.2-0.3c0.6-0.2,1.1-0.5,1.5-0.9c0.4-0.4,0.7-0.8,0.9-1.3
		c0.2-0.5,0.3-1,0.3-1.6c0-1-0.3-1.9-0.9-2.8c-0.6-0.9-1.4-1.6-2.5-2.3L137,43.7z"/>
</g>
</svg>
